<svg width="95" height="30" viewBox="0 0 95 30" fill="none" xmlns="http://www.w3.org/2000/svg">
<rect x="0.5" y="0.5" width="25.3682" height="29" rx="3.5" fill="white" stroke="#D9D9D9"/>
<rect x="34.7788" y="0.5" width="25.3682" height="29" rx="3.5" fill="white" stroke="#EB4724"/>
<rect x="69.0576" y="0.5" width="25.3682" height="29" rx="3.5" fill="white" stroke="#D9D9D9"/>
<path d="M9.65664 22V9.148H11.2766V20.56H16.8926V22H9.65664Z" fill="#757575"/>
<path d="M47.0893 22L42.8593 10.732H42.7873C42.8113 10.972 42.8293 11.278 42.8413 11.65C42.8653 12.022 42.8833 12.43 42.8953 12.874C42.9073 13.306 42.9133 13.75 42.9133 14.206V22H41.4193V9.148H43.8133L47.7733 19.678H47.8453L51.8773 9.148H54.2533V22H52.6513V14.098C52.6513 13.678 52.6573 13.264 52.6693 12.856C52.6813 12.436 52.6993 12.046 52.7233 11.686C52.7473 11.314 52.7653 11.002 52.7773 10.75H52.7053L48.4213 22H47.0893Z" fill="#757575"/>
<path d="M86.5038 18.562C86.5038 19.33 86.3178 19.984 85.9458 20.524C85.5738 21.052 85.0398 21.46 84.3438 21.748C83.6598 22.036 82.8498 22.18 81.9138 22.18C81.4338 22.18 80.9718 22.156 80.5278 22.108C80.0958 22.06 79.6998 21.994 79.3398 21.91C78.9798 21.814 78.6618 21.7 78.3858 21.568V20.02C78.8178 20.212 79.3518 20.386 79.9878 20.542C80.6358 20.698 81.3018 20.776 81.9858 20.776C82.6218 20.776 83.1558 20.692 83.5878 20.524C84.0198 20.356 84.3438 20.116 84.5598 19.804C84.7758 19.492 84.8838 19.126 84.8838 18.706C84.8838 18.286 84.7938 17.932 84.6138 17.644C84.4338 17.356 84.1218 17.092 83.6778 16.852C83.2458 16.6 82.6398 16.336 81.8598 16.06C81.3078 15.856 80.8218 15.64 80.4018 15.412C79.9938 15.172 79.6518 14.902 79.3758 14.602C79.0998 14.302 78.8898 13.96 78.7458 13.576C78.6138 13.192 78.5478 12.748 78.5478 12.244C78.5478 11.56 78.7218 10.978 79.0698 10.498C79.4178 10.006 79.8978 9.628 80.5098 9.364C81.1338 9.1 81.8478 8.968 82.6518 8.968C83.3598 8.968 84.0078 9.034 84.5958 9.166C85.1838 9.298 85.7178 9.472 86.1978 9.688L85.6938 11.074C85.2498 10.882 84.7638 10.72 84.2358 10.588C83.7198 10.456 83.1798 10.39 82.6158 10.39C82.0758 10.39 81.6258 10.468 81.2658 10.624C80.9058 10.78 80.6358 11.002 80.4558 11.29C80.2758 11.566 80.1858 11.89 80.1858 12.262C80.1858 12.694 80.2758 13.054 80.4558 13.342C80.6358 13.63 80.9298 13.888 81.3378 14.116C81.7458 14.344 82.2978 14.59 82.9938 14.854C83.7498 15.13 84.3858 15.43 84.9018 15.754C85.4298 16.066 85.8258 16.444 86.0898 16.888C86.3658 17.332 86.5038 17.89 86.5038 18.562Z" fill="#757575"/>
</svg>
