<svg width="120" height="23" viewBox="0 0 120 23" fill="none" xmlns="http://www.w3.org/2000/svg">
<path d="M11 1L13.4697 8.60081H21.4616L14.996 13.2984L17.4656 20.8992L11 16.2016L4.53436 20.8992L7.00402 13.2984L0.538379 8.60081H8.53035L11 1Z" fill="#E4AA12"/>
<path d="M35 0L37.4697 7.60081H45.4616L38.996 12.2984L41.4656 19.8992L35 15.2016L28.5344 19.8992L31.004 12.2984L24.5384 7.60081H32.5303L35 0Z" fill="#E4AA12"/>
<path d="M60 0L62.4697 7.60081H70.4616L63.996 12.2984L66.4656 19.8992L60 15.2016L53.5344 19.8992L56.004 12.2984L49.5384 7.60081H57.5303L60 0Z" fill="#E4AA12"/>
<path d="M84 0L86.4697 7.60081H94.4616L87.996 12.2984L90.4656 19.8992L84 15.2016L77.5344 19.8992L80.004 12.2984L73.5384 7.60081H81.5303L84 0Z" fill="#D9D9D9"/>
<path d="M109 0L111.47 7.60081H119.462L112.996 12.2984L115.466 19.8992L109 15.2016L102.534 19.8992L105.004 12.2984L98.5384 7.60081H106.53L109 0Z" fill="#D9D9D9"/>
</svg>
